<svg width="298" height="23" viewBox="0 0 298 23" fill="none" xmlns="http://www.w3.org/2000/svg">
<path d="M13.624 15.016C13.624 13.9707 13.7733 12.5947 14.072 10.888C14.3707 9.16 14.7653 7.67733 15.256 6.44C15.7467 5.18133 16.408 4.09333 17.24 3.176C18.84 1.40533 21.368 0.519999 24.824 0.519999C27.512 0.519999 29.432 1.064 30.584 2.152C31.7573 3.21867 32.344 4.81867 32.344 6.952C32.344 9.08533 32.0347 11.1333 31.416 13.096C30.7973 15.0373 30.0507 16.5307 29.176 17.576L31.16 18.92L28.92 22.6L23.288 21.48L23.512 20.264L20.792 21C18.2107 21 16.3653 20.488 15.256 19.464C14.168 18.4187 13.624 16.936 13.624 15.016ZM22.2 16.008C23.032 16.008 23.6507 15.912 24.056 15.72C24.4613 15.5067 24.728 15.0373 24.856 14.312L26.328 5.992H23.768C22.9573 5.992 22.3493 6.09867 21.944 6.312C21.5387 6.504 21.272 6.96267 21.144 7.688L19.672 16.008H22.2ZM13.24 10.216L13.016 11.56L0.44 10.216H13.24ZM12.792 13.288C12.728 13.7787 12.696 14.2267 12.696 14.632L0.0879998 13.288H12.792ZM14.008 7.144L13.624 8.456L1.208 7.144H14.008ZM12.728 16.36C12.7707 16.7227 12.856 17.1707 12.984 17.704L0.504 16.36H12.728ZM15.32 4.072C15.0213 4.62667 14.808 5.05333 14.68 5.352L2.712 4.072H15.32ZM13.88 19.464C14.1787 19.784 14.6053 20.1787 15.16 20.648L3.576 19.464H13.88ZM18.36 1C17.7413 1.384 17.2613 1.736 16.92 2.056L7.128 1H18.36ZM39.6538 14.728L26.0857 13.288H39.9098L39.6538 14.728ZM40.1978 11.656L26.6297 10.216H40.4538L40.1978 11.656ZM40.7418 8.584L27.1737 7.144H40.9978L40.7418 8.584ZM41.2858 5.512L27.7177 4.072H41.5098L41.2858 5.512ZM39.5258 16.36V17C39.5258 17.3627 39.5364 17.6293 39.5578 17.8L25.9897 16.36H39.5258ZM40.7738 20.904L27.2057 19.464H39.8458C40.0804 20.0613 40.3898 20.5413 40.7738 20.904ZM47.3338 16.52C47.9098 16.52 48.3044 16.456 48.5178 16.328C48.7524 16.1787 48.9124 15.8373 48.9978 15.304L51.0138 4.072H56.3898L54.7258 13.608C54.2138 16.5947 53.3818 18.6427 52.2298 19.752C51.0991 20.84 49.1578 21.384 46.4058 21.384C44.2084 21.384 42.6724 21.064 41.7978 20.424C40.9231 19.7627 40.4858 18.6213 40.4858 17C40.4858 16.104 40.6031 14.9733 40.8378 13.608L42.5338 4.072H47.9098L45.7338 16.52H47.3338ZM73.1758 21L73.0478 18.408H69.0158L68.0238 21H62.4878L69.5918 4.072H77.5278L78.7758 21H73.1758ZM73.0478 13.832V8.968H72.5998L70.7118 13.832H73.0478ZM61.4638 20.872L48.3438 19.464H62.0718L61.4638 20.872ZM62.7758 17.768L49.6557 16.36H63.3838L62.7758 17.768ZM64.0878 14.696L50.9677 13.288H64.6638L64.0878 14.696ZM65.3678 11.624L52.2797 10.216H65.9758L65.3678 11.624ZM66.6798 8.552L53.5917 7.144H67.2558L66.6798 8.552ZM67.9598 5.448L54.9037 4.072H68.5358L67.9598 5.448ZM97.0417 21L93.7458 14.664H93.6178L92.4978 21H87.1218L90.0658 4.072H94.4178L97.7458 10.376H97.9378L99.0258 4.072H104.37L101.394 21H97.0417ZM86.0658 20.904L72.4977 19.464H86.3218L86.0658 20.904ZM87.1538 14.728L73.5857 13.288H87.4098L87.1538 14.728ZM87.6978 11.656L74.1297 10.216H87.9538L87.6978 11.656ZM88.2418 8.584L74.6737 7.144H88.4978L88.2418 8.584ZM88.7858 5.512L75.2177 4.072H89.0098L88.7858 5.512ZM86.6098 17.8L73.0417 16.36H86.8658L86.6098 17.8ZM125.252 8.872H121.796L119.684 21H114.052L116.164 8.872H112.612L113.476 4.072H126.116L125.252 8.872ZM113.092 20.904L99.5235 19.464H113.348L113.092 20.904ZM114.18 14.728L100.611 13.288H114.436L114.18 14.728ZM114.724 11.656L101.155 10.216H114.98L114.724 11.656ZM111.652 8.584L98.0835 7.144H111.908L111.652 8.584ZM112.196 5.512L98.6275 4.072H112.42L112.196 5.512ZM113.635 17.8L100.067 16.36H113.892L113.635 17.8ZM131.685 14.728L118.117 13.288H131.941L131.685 14.728ZM132.229 11.656L118.661 10.216H132.485L132.229 11.656ZM132.773 8.584L119.205 7.144H133.029L132.773 8.584ZM133.317 5.512L119.749 4.072H133.541L133.317 5.512ZM131.557 16.36V17C131.557 17.3627 131.568 17.6293 131.589 17.8L118.021 16.36H131.557ZM132.805 20.904L119.237 19.464H131.877C132.112 20.0613 132.421 20.5413 132.805 20.904ZM139.365 16.52C139.941 16.52 140.336 16.456 140.549 16.328C140.784 16.1787 140.944 15.8373 141.029 15.304L143.045 4.072H148.421L146.757 13.608C146.245 16.5947 145.413 18.6427 144.261 19.752C143.13 20.84 141.189 21.384 138.437 21.384C136.24 21.384 134.704 21.064 133.829 20.424C132.954 19.7627 132.517 18.6213 132.517 17C132.517 16.104 132.634 14.9733 132.869 13.608L134.565 4.072H139.941L137.765 16.52H139.365ZM166.775 21H162.551L162.071 14.12H161.911L160.375 21H154.903L158.775 4.072H165.719L166.199 12.008H166.327L169.559 4.072H176.503L174.455 21H168.951L169.815 14.12H169.655L166.775 21ZM153.847 20.904L140.279 19.464H154.167L153.847 20.904ZM154.551 17.8L141.015 16.36H154.903L154.551 17.8ZM155.287 14.728L141.751 13.288H155.607L155.287 14.728ZM155.927 11.656L142.487 10.216H156.279L155.927 11.656ZM156.663 8.584L143.223 7.144H156.983L156.663 8.584ZM157.367 5.512L143.959 4.072H157.719L157.367 5.512ZM190.249 15.016C190.249 13.9707 190.398 12.5947 190.697 10.888C190.996 9.16 191.39 7.67733 191.881 6.44C192.372 5.18133 193.033 4.09333 193.865 3.176C195.465 1.40533 197.993 0.519999 201.449 0.519999C204.137 0.519999 206.057 1.064 207.209 2.152C208.382 3.21867 208.969 4.81867 208.969 6.952C208.969 9.08533 208.66 11.1333 208.041 13.096C207.422 15.0373 206.676 16.5307 205.801 17.576L207.785 18.92L205.545 22.6L199.913 21.48L200.137 20.264L197.417 21C194.836 21 192.99 20.488 191.881 19.464C190.793 18.4187 190.249 16.936 190.249 15.016ZM198.825 16.008C199.657 16.008 200.276 15.912 200.681 15.72C201.086 15.5067 201.353 15.0373 201.481 14.312L202.953 5.992H200.393C199.582 5.992 198.974 6.09867 198.569 6.312C198.164 6.504 197.897 6.96267 197.769 7.688L196.297 16.008H198.825ZM189.865 10.216L189.641 11.56L177.065 10.216H189.865ZM189.417 13.288C189.353 13.7787 189.321 14.2267 189.321 14.632L176.713 13.288H189.417ZM190.633 7.144L190.249 8.456L177.833 7.144H190.633ZM189.353 16.36C189.396 16.7227 189.481 17.1707 189.609 17.704L177.129 16.36H189.353ZM191.945 4.072C191.646 4.62667 191.433 5.05333 191.305 5.352L179.337 4.072H191.945ZM190.505 19.464C190.804 19.784 191.23 20.1787 191.785 20.648L180.201 19.464H190.505ZM194.985 1C194.366 1.384 193.886 1.736 193.545 2.056L183.753 1H194.985ZM216.279 14.728L202.711 13.288H216.535L216.279 14.728ZM216.823 11.656L203.255 10.216H217.079L216.823 11.656ZM217.367 8.584L203.799 7.144H217.623L217.367 8.584ZM217.911 5.512L204.343 4.072H218.135L217.911 5.512ZM216.151 16.36V17C216.151 17.3627 216.161 17.6293 216.183 17.8L202.615 16.36H216.151ZM217.399 20.904L203.831 19.464H216.471C216.705 20.0613 217.015 20.5413 217.399 20.904ZM223.959 16.52C224.535 16.52 224.929 16.456 225.143 16.328C225.377 16.1787 225.537 15.8373 225.623 15.304L227.639 4.072H233.015L231.351 13.608C230.839 16.5947 230.007 18.6427 228.855 19.752C227.724 20.84 225.783 21.384 223.031 21.384C220.833 21.384 219.297 21.064 218.423 20.424C217.548 19.7627 217.111 18.6213 217.111 17C217.111 16.104 217.228 14.9733 217.463 13.608L219.159 4.072H224.535L222.359 16.52H223.959ZM250.857 14.12H246.089L245.705 16.296H251.625L250.793 21H239.497L242.441 4.072H253.705L252.201 8.872H246.985L246.601 11.048H251.401L250.857 14.12ZM238.441 20.904L224.873 19.464H238.697L238.441 20.904ZM239.529 14.728L225.961 13.288H239.785L239.529 14.728ZM240.073 11.656L226.505 10.216H240.329L240.073 11.656ZM240.617 8.584L227.049 7.144H240.873L240.617 8.584ZM241.161 5.512L227.593 4.072H241.385L241.161 5.512ZM238.985 17.8L225.417 16.36H239.241L238.985 17.8ZM260.529 14.728L246.961 13.288H260.785L260.529 14.728ZM261.073 11.656L247.505 10.216H261.329L261.073 11.656ZM261.617 8.584L248.049 7.144H261.873L261.617 8.584ZM262.161 5.512L248.593 4.072H262.385L262.161 5.512ZM260.401 16.36V17C260.401 17.3627 260.411 17.6293 260.433 17.8L246.865 16.36H260.401ZM261.649 20.904L248.081 19.464H260.721C260.955 20.0613 261.265 20.5413 261.649 20.904ZM268.209 16.52C268.785 16.52 269.179 16.456 269.393 16.328C269.627 16.1787 269.787 15.8373 269.873 15.304L271.889 4.072H277.265L275.601 13.608C275.089 16.5947 274.257 18.6427 273.105 19.752C271.974 20.84 270.033 21.384 267.281 21.384C265.083 21.384 263.547 21.064 262.673 20.424C261.798 19.7627 261.361 18.6213 261.361 17C261.361 16.104 261.478 14.9733 261.713 13.608L263.409 4.072H268.785L266.609 16.52H268.209ZM295.107 14.12H290.339L289.955 16.296H295.875L295.043 21H283.747L286.691 4.072H297.955L296.451 8.872H291.235L290.851 11.048H295.651L295.107 14.12ZM282.691 20.904L269.123 19.464H282.947L282.691 20.904ZM283.779 14.728L270.211 13.288H284.035L283.779 14.728ZM284.323 11.656L270.755 10.216H284.579L284.323 11.656ZM284.867 8.584L271.299 7.144H285.123L284.867 8.584ZM285.411 5.512L271.843 4.072H285.635L285.411 5.512ZM283.235 17.8L269.667 16.36H283.491L283.235 17.8Z" fill="#FF9400"/>
</svg>
